<?xml version="1.0" encoding="UTF-8" standalone="no"?>
<svg
   width="1400"
   height="1000"
   viewBox="0 0 1400 1000"
   version="1.1"
   id="svg1"
   xmlns="http://www.w3.org/2000/svg"
   xmlns:svg="http://www.w3.org/2000/svg">
  <title>Complete Autonomous System Diagram</title>
  <desc>Diagram showing the complete autonomous humanoid robot system integrating all modules</desc>

  <!-- Background -->
  <rect width="100%" height="100%" fill="#ffffff"/>

  <!-- Title -->
  <text x="700" y="40" font-family="Arial" font-size="32" text-anchor="middle" fill="#000000" font-weight="bold">
    Complete Autonomous Humanoid Robot System
  </text>

  <!-- Isaac Sim Box -->
  <rect x="50" y="80" width="300" height="200" fill="#e6f3ff" stroke="#0066cc" stroke-width="2" rx="10" ry="10"/>
  <text x="200" y="110" font-family="Arial" font-size="16" text-anchor="middle" fill="#000000" font-weight="bold">
    Isaac Sim
  </text>
  <text x="200" y="135" font-family="Arial" font-size="12" text-anchor="middle" fill="#000000">
    (Simulation Environment)
  </text>

  <!-- Isaac Sim Components -->
  <rect x="70" y="160" width="120" height="40" fill="#cceeff" stroke="#0066cc" stroke-width="1" rx="5" ry="5"/>
  <text x="130" y="185" font-family="Arial" font-size="10" text-anchor="middle" fill="#000000">
    Physics Engine
  </text>

  <rect x="210" y="160" width="120" height="40" fill="#cceeff" stroke="#0066cc" stroke-width="1" rx="5" ry="5"/>
  <text x="270" y="185" font-family="Arial" font-size="10" text-anchor="middle" fill="#000000">
    RTX Renderer
  </text>

  <rect x="70" y="210" width="120" height="40" fill="#cceeff" stroke="#0066cc" stroke-width="1" rx="5" ry="5"/>
  <text x="130" y="235" font-family="Arial" font-size="10" text-anchor="middle" fill="#000000">
    USD Scenes
  </text>

  <rect x="210" y="210" width="120" height="40" fill="#cceeff" stroke="#0066cc" stroke-width="1" rx="5" ry="5"/>
  <text x="270" y="235" font-family="Arial" font-size="10" text-anchor="middle" fill="#000000">
    Robot Assets
  </text>

  <!-- Isaac ROS Box -->
  <rect x="400" y="80" width="250" height="200" fill="#ffe6e6" stroke="#cc0000" stroke-width="2" rx="10" ry="10"/>
  <text x="525" y="110" font-family="Arial" font-size="16" text-anchor="middle" fill="#000000" font-weight="bold">
    Isaac ROS
  </text>
  <text x="525" y="135" font-family="Arial" font-size="12" text-anchor="middle" fill="#000000">
    (Perception &amp; GPU Acceleration)
  </text>

  <!-- Isaac ROS Components -->
  <rect x="420" y="160" width="100" height="40" fill="#ffcccc" stroke="#cc0000" stroke-width="1" rx="5" ry="5"/>
  <text x="470" y="185" font-family="Arial" font-size="10" text-anchor="middle" fill="#000000">
    Visual SLAM
  </text>

  <rect x="540" y="160" width="100" height="40" fill="#ffcccc" stroke="#cc0000" stroke-width="1" rx="5" ry="5"/>
  <text x="590" y="185" font-family="Arial" font-size="10" text-anchor="middle" fill="#000000">
    Stereo DNN
  </text>

  <rect x="420" y="210" width="100" height="40" fill="#ffcccc" stroke="#cc0000" stroke-width="1" rx="5" ry="5"/>
  <text x="470" y="235" font-family="Arial" font-size="10" text-anchor="middle" fill="#000000">
    Sensor Bridge
  </text>

  <rect x="540" y="210" width="100" height="40" fill="#ffcccc" stroke="#cc0000" stroke-width="1" rx="5" ry="5"/>
  <text x="590" y="235" font-family="Arial" font-size="10" text-anchor="middle" fill="#000000">
    Synthetic Data
  </text>

  <!-- Nav2 Box -->
  <rect x="700" y="80" width="250" height="200" fill="#e6ffe6" stroke="#00cc00" stroke-width="2" rx="10" ry="10"/>
  <text x="825" y="110" font-family="Arial" font-size="16" text-anchor="middle" fill="#000000" font-weight="bold">
    Nav2 for Humanoids
  </text>
  <text x="825" y="135" font-family="Arial" font-size="12" text-anchor="middle" fill="#000000">
    (Navigation &amp; Path Planning)
  </text>

  <!-- Nav2 Components -->
  <rect x="720" y="160" width="100" height="40" fill="#ccffcc" stroke="#009900" stroke-width="1" rx="5" ry="5"/>
  <text x="770" y="185" font-family="Arial" font-size="10" text-anchor="middle" fill="#000000">
    Global Planner
  </text>

  <rect x="840" y="160" width="100" height="40" fill="#ccffcc" stroke="#009900" stroke-width="1" rx="5" ry="5"/>
  <text x="890" y="185" font-family="Arial" font-size="10" text-anchor="middle" fill="#000000">
    Local Planner
  </text>

  <rect x="720" y="210" width="100" height="40" fill="#ccffcc" stroke="#009900" stroke-width="1" rx="5" ry="5"/>
  <text x="770" y="235" font-family="Arial" font-size="10" text-anchor="middle" fill="#000000">
    Footstep Planner
  </text>

  <rect x="840" y="210" width="100" height="40" fill="#ccffcc" stroke="#009900" stroke-width="1" rx="5" ry="5"/>
  <text x="890" y="235" font-family="Arial" font-size="10" text-anchor="middle" fill="#000000">
    Balance Control
  </text>

  <!-- Voice Processing Box -->
  <rect x="1000" y="80" width="350" height="200" fill="#fff0cc" stroke="#ff9900" stroke-width="2" rx="10" ry="10"/>
  <text x="1175" y="110" font-family="Arial" font-size="16" text-anchor="middle" fill="#000000" font-weight="bold">
    Voice-to-Action Processing
  </text>
  <text x="1175" y="135" font-family="Arial" font-size="12" text-anchor="middle" fill="#000000">
    (Whisper &amp; NLP Pipeline)
  </text>

  <!-- Voice Processing Components -->
  <rect x="1020" y="160" width="80" height="40" fill="#ffec99" stroke="#ff9900" stroke-width="1" rx="5" ry="5"/>
  <text x="1060" y="185" font-family="Arial" font-size="10" text-anchor="middle" fill="#000000">
    Audio Capture
  </text>

  <rect x="1120" y="160" width="80" height="40" fill="#ffec99" stroke="#ff9900" stroke-width="1" rx="5" ry="5"/>
  <text x="1160" y="185" font-family="Arial" font-size="10" text-anchor="middle" fill="#000000">
    Whisper ASR
  </text>

  <rect x="1220" y="160" width="80" height="40" fill="#ffec99" stroke="#ff9900" stroke-width="1" rx="5" ry="5"/>
  <text x="1260" y="185" font-family="Arial" font-size="10" text-anchor="middle" fill="#000000">
    NLP Parser
  </text>

  <rect x="1020" y="210" width="80" height="40" fill="#ffec99" stroke="#ff9900" stroke-width="1" rx="5" ry="5"/>
  <text x="1060" y="235" font-family="Arial" font-size="10" text-anchor="middle" fill="#000000">
    Intent Recognition
  </text>

  <rect x="1120" y="210" width="80" height="40" fill="#ffec99" stroke="#ff9900" stroke-width="1" rx="5" ry="5"/>
  <text x="1160" y="235" font-family="Arial" font-size="10" text-anchor="middle" fill="#000000">
    Entity Extraction
  </text>

  <rect x="1220" y="210" width="80" height="40" fill="#ffec99" stroke="#ff9900" stroke-width="1" rx="5" ry="5"/>
  <text x="1260" y="235" font-family="Arial" font-size="10" text-anchor="middle" fill="#000000">
    Command Validation
  </text>

  <!-- LLM Cognitive Planning Box -->
  <rect x="700" y="320" width="250" height="150" fill="#e6e6ff" stroke="#6600cc" stroke-width="2" rx="10" ry="10"/>
  <text x="825" y="350" font-family="Arial" font-size="16" text-anchor="middle" fill="#000000" font-weight="bold">
    LLM Cognitive Planning
  </text>
  <text x="825" y="375" font-family="Arial" font-size="12" text-anchor="middle" fill="#000000">
    (AI Reasoning &amp; Decision Making)
  </text>

  <!-- LLM Components -->
  <rect x="720" y="400" width="100" height="40" fill="#ccccff" stroke="#6600cc" stroke-width="1" rx="5" ry="5"/>
  <text x="770" y="425" font-family="Arial" font-size="10" text-anchor="middle" fill="#000000">
    Task Decomposition
  </text>

  <rect x="840" y="400" width="100" height="40" fill="#ccccff" stroke="#6600cc" stroke-width="1" rx="5" ry="5"/>
  <text x="890" y="425" font-family="Arial" font-size="10" text-anchor="middle" fill="#000000">
    Context Reasoning
  </text>

  <rect x="720" y="450" width="100" height="40" fill="#ccccff" stroke="#6600cc" stroke-width="1" rx="5" ry="5"/>
  <text x="770" y="475" font-family="Arial" font-size="10" text-anchor="middle" fill="#000000">
    Memory Management
  </text>

  <rect x="840" y="450" width="100" height="40" fill="#ccccff" stroke="#6600cc" stroke-width="1" rx="5" ry="5"/>
  <text x="890" y="475" font-family="Arial" font-size="10" text-anchor="middle" fill="#000000">
    Safety Validation
  </text>

  <!-- Robot Hardware Box -->
  <rect x="50" y="320" width="300" height="200" fill="#ffe6f0" stroke="#cc0066" stroke-width="2" rx="10" ry="10"/>
  <text x="200" y="350" font-family="Arial" font-size="16" text-anchor="middle" fill="#000000" font-weight="bold">
    Robot Hardware Layer
  </text>
  <text x="200" y="375" font-family="Arial" font-size="12" text-anchor="middle" fill="#000000">
    (Physical Robot Components)
  </text>

  <!-- Hardware Components -->
  <rect x="70" y="400" width="80" height="40" fill="#ffccdd" stroke="#cc0066" stroke-width="1" rx="5" ry="5"/>
  <text x="110" y="425" font-family="Arial" font-size="10" text-anchor="middle" fill="#000000">
    Actuators
  </text>

  <rect x="170" y="400" width="80" height="40" fill="#ffccdd" stroke="#cc0066" stroke-width="1" rx="5" ry="5"/>
  <text x="210" y="425" font-family="Arial" font-size="10" text-anchor="middle" fill="#000000">
    Sensors
  </text>

  <rect x="270" y="400" width="80" height="40" fill="#ffccdd" stroke="#cc0066" stroke-width="1" rx="5" ry="5"/>
  <text x="310" y="425" font-family="Arial" font-size="10" text-anchor="middle" fill="#000000">
    Power System
  </text>

  <rect x="70" y="460" width="80" height="40" fill="#ffccdd" stroke="#cc0066" stroke-width="1" rx="5" ry="5"/>
  <text x="110" y="485" font-family="Arial" font-size="10" text-anchor="middle" fill="#000000">
    Control Boards
  </text>

  <rect x="170" y="460" width="80" height="40" fill="#ffccdd" stroke="#cc0066" stroke-width="1" rx="5" ry="5"/>
  <text x="210" y="485" font-family="Arial" font-size="10" text-anchor="middle" fill="#000000">
    Communication
  </text>

  <rect x="270" y="460" width="80" height="40" fill="#ffccdd" stroke="#cc0066" stroke-width="1" rx="5" ry="5"/>
  <text x="310" y="485" font-family="Arial" font-size="10" text-anchor="middle" fill="#000000">
    Safety Systems
  </text>

  <!-- ROS 2 Middleware Box -->
  <rect x="400" y="320" width="250" height="150" fill="#e6ffe6" stroke="#00cc00" stroke-width="2" rx="10" ry="10"/>
  <text x="525" y="350" font-family="Arial" font-size="16" text-anchor="middle" fill="#000000" font-weight="bold">
    ROS 2 Middleware
  </text>
  <text x="525" y="375" font-family="Arial" font-size="12" text-anchor="middle" fill="#000000">
    (Communication Framework)
  </text>

  <!-- ROS 2 Components -->
  <rect x="420" y="400" width="100" height="40" fill="#ccffcc" stroke="#009900" stroke-width="1" rx="5" ry="5"/>
  <text x="470" y="425" font-family="Arial" font-size="10" text-anchor="middle" fill="#000000">
    Topics &amp; Services
  </text>

  <rect x="540" y="400" width="100" height="40" fill="#ccffcc" stroke="#009900" stroke-width="1" rx="5" ry="5"/>
  <text x="590" y="425" font-family="Arial" font-size="10" text-anchor="middle" fill="#000000">
    Actions &amp; Parameters
  </text>

  <rect x="420" y="450" width="100" height="40" fill="#ccffcc" stroke="#009900" stroke-width="1" rx="5" ry="5"/>
  <text x="470" y="475" font-family="Arial" font-size="10" text-anchor="middle" fill="#000000">
    TF &amp; Transformations
  </text>

  <rect x="540" y="450" width="100" height="40" fill="#ccffcc" stroke="#009900" stroke-width="1" rx="5" ry="5"/>
  <text x="590" y="475" font-family="Arial" font-size="10" text-anchor="middle" fill="#000000">
    Lifecycle Management
  </text>

  <!-- Capstone Integration Box -->
  <rect x="1000" y="320" width="350" height="200" fill="#e6e6ff" stroke="#6600cc" stroke-width="2" rx="10" ry="10"/>
  <text x="1175" y="350" font-family="Arial" font-size="16" text-anchor="middle" fill="#000000" font-weight="bold">
    Capstone Integration
  </text>
  <text x="1175" y="375" font-family="Arial" font-size="12" text-anchor="middle" fill="#000000">
    (Complete System Orchestration)
  </text>

  <!-- Capstone Components -->
  <rect x="1020" y="400" width="100" height="40" fill="#ccccff" stroke="#6600cc" stroke-width="1" rx="5" ry="5"/>
  <text x="1070" y="425" font-family="Arial" font-size="10" text-anchor="middle" fill="#000000">
    State Management
  </text>

  <rect x="1150" y="400" width="100" height="40" fill="#ccccff" stroke="#6600cc" stroke-width="1" rx="5" ry="5"/>
  <text x="1200" y="425" font-family="Arial" font-size="10" text-anchor="middle" fill="#000000">
    Synchronization
  </text>

  <rect x="1280" y="400" width="100" height="40" fill="#ccccff" stroke="#6600cc" stroke-width="1" rx="5" ry="5"/>
  <text x="1330" y="425" font-family="Arial" font-size="10" text-anchor="middle" fill="#000000">
    Performance Optimization
  </text>

  <rect x="1020" y="460" width="100" height="40" fill="#ccccff" stroke="#6600cc" stroke-width="1" rx="5" ry="5"/>
  <text x="1070" y="485" font-family="Arial" font-size="10" text-anchor="middle" fill="#000000">
    Error Handling
  </text>

  <rect x="1150" y="460" width="100" height="40" fill="#ccccff" stroke="#6600cc" stroke-width="1" rx="5" ry="5"/>
  <text x="1200" y="485" font-family="Arial" font-size="10" text-anchor="middle" fill="#000000">
    Safety Monitoring
  </text>

  <rect x="1280" y="460" width="100" height="40" fill="#ccccff" stroke="#6600cc" stroke-width="1" rx="5" ry="5"/>
  <text x="1330" y="485" font-family="Arial" font-size="10" text-anchor="middle" fill="#000000">
    Human Interaction
  </text>

  <!-- User Interaction Box -->
  <rect x="50" y="560" width="300" height="120" fill="#e6ffe6" stroke="#00cc00" stroke-width="2" rx="10" ry="10"/>
  <text x="200" y="590" font-family="Arial" font-size="16" text-anchor="middle" fill="#000000" font-weight="bold">
    User Interaction
  </text>
  <text x="200" y="615" font-family="Arial" font-size="12" text-anchor="middle" fill="#000000">
    (Voice, Gesture, Visual)
  </text>

  <!-- User Components -->
  <rect x="70" y="630" width="80" height="30" fill="#ccffcc" stroke="#009900" stroke-width="1" rx="5" ry="5"/>
  <text x="110" y="650" font-family="Arial" font-size="10" text-anchor="middle" fill="#000000">
    Voice Commands
  </text>

  <rect x="170" y="630" width="80" height="30" fill="#ccffcc" stroke="#009900" stroke-width="1" rx="5" ry="5"/>
  <text x="210" y="650" font-family="Arial" font-size="10" text-anchor="middle" fill="#000000">
    Gesture Recognition
  </text>

  <rect x="270" y="630" width="80" height="30" fill="#ccffcc" stroke="#009900" stroke-width="1" rx="5" ry="5"/>
  <text x="310" y="650" font-family="Arial" font-size="10" text-anchor="middle" fill="#000000">
    Visual Feedback
  </text>

  <!-- Environment Box -->
  <rect x="400" y="560" width="550" height="120" fill="#f0f0f0" stroke="#999999" stroke-width="2" rx="10" ry="10"/>
  <text x="675" y="590" font-family="Arial" font-size="16" text-anchor="middle" fill="#000000" font-weight="bold">
    Environment &amp; World Model
  </text>
  <text x="675" y="615" font-family="Arial" font-size="12" text-anchor="middle" fill="#000000">
    (Physical Space, Objects, Maps)
  </text>

  <!-- Environment Components -->
  <rect x="420" y="630" width="80" height="30" fill="#e0e0e0" stroke="#999999" stroke-width="1" rx="5" ry="5"/>
  <text x="460" y="650" font-family="Arial" font-size="10" text-anchor="middle" fill="#000000">
    3D Maps
  </text>

  <rect x="520" y="630" width="80" height="30" fill="#e0e0e0" stroke="#999999" stroke-width="1" rx="5" ry="5"/>
  <text x="560" y="650" font-family="Arial" font-size="10" text-anchor="middle" fill="#000000">
    Object Detection
  </text>

  <rect x="620" y="630" width="80" height="30" fill="#e0e0e0" stroke="#999999" stroke-width="1" rx="5" ry="5"/>
  <text x="660" y="650" font-family="Arial" font-size="10" text-anchor="middle" fill="#000000">
    Human Detection
  </text>

  <rect x="720" y="630" width="80" height="30" fill="#e0e0e0" stroke="#999999" stroke-width="1" rx="5" ry="5"/>
  <text x="760" y="650" font-family="Arial" font-size="10" text-anchor="middle" fill="#000000">
    Obstacle Mapping
  </text>

  <rect x="820" y="630" width="80" height="30" fill="#e0e0e0" stroke="#999999" stroke-width="1" rx="5" ry="5"/>
  <text x="860" y="650" font-family="Arial" font-size="10" text-anchor="middle" fill="#000000">
    Semantic Maps
  </text>

  <!-- Data Flow Arrows -->
  <!-- Isaac Sim to Isaac ROS -->
  <line x1="350" y1="180" x2="400" y2="180" stroke="#666666" stroke-width="2" marker-end="url(#arrow)"/>
  <text x="375" y="165" font-family="Arial" font-size="10" text-anchor="middle" fill="#000000">
    Simulated Sensor Data
  </text>

  <!-- Isaac ROS to Nav2 -->
  <line x1="650" y1="180" x2="700" y2="180" stroke="#666666" stroke-width="2" marker-end="url(#arrow)"/>
  <text x="675" y="165" font-family="Arial" font-size="10" text-anchor="middle" fill="#000000">
    Perception Data
  </text>

  <!-- Isaac ROS to Voice Processing -->
  <line x1="525" y1="280" x2="525" y2="320" stroke="#666666" stroke-width="2" stroke-dasharray="5,5" marker-end="url(#arrow)"/>
  <text x="545" y="300" font-family="Arial" font-size="10" text-anchor="middle" fill="#000000" transform="rotate(-90, 545, 300)">
    Sensor Integration
  </text>

  <!-- Voice Processing to Cognitive Planning -->
  <line x1="1175" y1="280" x2="1175" y2="320" stroke="#666666" stroke-width="2" stroke-dasharray="5,5" marker-end="url(#arrow)"/>
  <text x="1195" y="300" font-family="Arial" font-size="10" text-anchor="middle" fill="#000000" transform="rotate(-90, 1195, 300)">
    Voice Commands
  </text>

  <!-- Cognitive Planning to Capstone Integration -->
  <line x1="950" y1="400" x2="1000" y2="400" stroke="#666666" stroke-width="2" marker-end="url(#arrow)"/>
  <text x="975" y="385" font-family="Arial" font-size="10" text-anchor="middle" fill="#000000">
    Execution Plans
  </text>

  <!-- ROS 2 Middleware connections -->
  <line x1="525" y1="470" x2="525" y2="560" stroke="#666666" stroke-width="2" stroke-dasharray="5,5" marker-end="url(#arrow)"/>
  <text x="545" y="530" font-family="Arial" font-size="10" text-anchor="middle" fill="#000000" transform="rotate(-90, 545, 530)">
    ROS 2 Communication
  </text>

  <!-- Hardware to ROS -->
  <line x1="200" y1="520" x2="200" y2="560" stroke="#666666" stroke-width="2" stroke-dasharray="5,5" marker-end="url(#arrow)"/>
  <text x="220" y="540" font-family="Arial" font-size="10" text-anchor="middle" fill="#000000" transform="rotate(-90, 220, 540)">
    Hardware Interface
  </text>

  <!-- Capstone to Environment -->
  <line x1="1175" y1="520" x2="1175" y2="560" stroke="#666666" stroke-width="2" stroke-dasharray="5,5" marker-end="url(#arrow)"/>
  <text x="1195" y="540" font-family="Arial" font-size="10" text-anchor="middle" fill="#000000" transform="rotate(-90, 1195, 540)">
    Environment Updates
  </text>

  <!-- User to Voice Processing -->
  <line x1="200" y1="680" x2="200" y2="720" stroke="#666666" stroke-width="2" stroke-dasharray="5,5" marker-end="url(#arrow)"/>
  <line x1="200" y1="720" x2="1175" y2="720" stroke="#666666" stroke-width="2" stroke-dasharray="5,5" marker-end="url(#arrow)"/>
  <line x1="1175" y1="720" x2="1175" y2="520" stroke="#666666" stroke-width="2" stroke-dasharray="5,5" marker-end="url(#arrow)"/>
  <text x="687" y="710" font-family="Arial" font-size="10" text-anchor="middle" fill="#000000">
    User Commands
  </text>

  <!-- Environment to Perception -->
  <line x1="675" y1="560" x2="675" y2="520" stroke="#666666" stroke-width="2" stroke-dasharray="5,5" marker-end="url(#arrow)"/>
  <line x1="675" y1="520" x2="525" y2="520" stroke="#666666" stroke-width="2" stroke-dasharray="5,5" marker-end="url(#arrow)"/>
  <line x1="525" y1="520" x2="525" y2="280" stroke="#666666" stroke-width="2" stroke-dasharray="5,5" marker-end="url(#arrow)"/>
  <text x="600" y="510" font-family="Arial" font-size="10" text-anchor="middle" fill="#000000">
    Environmental Data
  </text>

  <!-- Cognitive Planning to Nav2 -->
  <line x1="825" y1="470" x2="825" y2="520" stroke="#666666" stroke-width="2" stroke-dasharray="5,5" marker-end="url(#arrow)"/>
  <line x1="825" y1="520" x2="825" y2="560" stroke="#666666" stroke-width="2" stroke-dasharray="5,5" marker-end="url(#arrow)"/>
  <text x="845" y="500" font-family="Arial" font-size="10" text-anchor="middle" fill="#000000" transform="rotate(-90, 845, 500)">
    Navigation Requests
  </text>

  <!-- Arrow marker definition -->
  <defs>
    <marker id="arrow" markerWidth="10" markerHeight="10" refX="9" refY="3" orient="auto" markerUnits="strokeWidth">
      <path d="M0,0 L0,6 L9,3 z" fill="#666666" />
    </marker>
  </defs>

  <!-- System Flow Indicators -->
  <text x="100" y="720" font-family="Arial" font-size="14" text-anchor="start" fill="#000000" font-weight="bold">
    System Flow:
  </text>
  <text x="100" y="745" font-family="Arial" font-size="12" text-anchor="start" fill="#000000">
    1. Perception (Isaac Sim → Isaac ROS)
  </text>
  <text x="100" y="770" font-family="Arial" font-size="12" text-anchor="start" fill="#000000">
    2. Planning (Voice → LLM → Nav2)
  </text>
  <text x="100" y="795" font-family="Arial" font-size="12" text-anchor="start" fill="#000000">
    3. Execution (ROS 2 → Hardware)
  </text>
  <text x="100" y="820" font-family="Arial" font-size="12" text-anchor="start" fill="#000000">
    4. Integration (Capstone System)
  </text>

  <!-- Key Technologies -->
  <rect x="1000" y="560" width="350" height="150" fill="#fff0f0" stroke="#cc6666" stroke-width="2" rx="10" ry="10"/>
  <text x="1175" y="590" font-family="Arial" font-size="16" text-anchor="middle" fill="#000000" font-weight="bold">
    Key Technologies &amp; Frameworks
  </text>

  <text x="1175" y="620" font-family="Arial" font-size="12" text-anchor="middle" fill="#000000">
    • Isaac Sim &amp; Isaac ROS
  </text>
  <text x="1175" y="640" font-family="Arial" font-size="12" text-anchor="middle" fill="#000000">
    • Navigation2 (Nav2)
  </text>
  <text x="1175" y="660" font-family="Arial" font-size="12" text-anchor="middle" fill="#000000">
    • OpenAI Whisper &amp; GPT
  </text>
  <text x="1175" y="680" font-family="Arial" font-size="12" text-anchor="middle" fill="#000000">
    • ROS 2 (Humble Hawksbill)
  </text>
  <text x="1175" y="700" font-family="Arial" font-size="12" text-anchor="middle" fill="#000000">
    • Python &amp; C++ Integration
  </text>

  <!-- Performance Indicators -->
  <rect x="50" y="820" width="400" height="100" fill="#f0f0ff" stroke="#6666cc" stroke-width="1" rx="5" ry="5"/>
  <text x="250" y="845" font-family="Arial" font-size="14" text-anchor="middle" fill="#000000" font-weight="bold">
    Performance Indicators
  </text>
  <text x="250" y="870" font-family="Arial" font-size="10" text-anchor="middle" fill="#000000">
    • Real-time Processing: &lt;200ms response
  </text>
  <text x="250" y="885" font-family="Arial" font-size="10" text-anchor="middle" fill="#000000">
    • Voice Recognition Accuracy: &gt;95%
  </text>
  <text x="250" y="900" font-family="Arial" font-size="10" text-anchor="middle" fill="#000000">
    • Navigation Success Rate: &gt;90%
  </text>
  <text x="250" y="915" font-family="Arial" font-size="10" text-anchor="middle" fill="#000000">
    • System Uptime: &gt;99.5%
  </text>

  <!-- Safety Features -->
  <rect x="500" y="820" width="400" height="100" fill="#fff0f0" stroke="#cc6666" stroke-width="1" rx="5" ry="5"/>
  <text x="700" y="845" font-family="Arial" font-size="14" text-anchor="middle" fill="#000000" font-weight="bold">
    Safety Features
  </text>
  <text x="700" y="870" font-family="Arial" font-size="10" text-anchor="middle" fill="#000000">
    • Emergency Stop Systems
  </text>
  <text x="700" y="885" font-family="Arial" font-size="10" text-anchor="middle" fill="#000000">
    • Collision Avoidance
  </text>
  <text x="700" y="900" font-family="Arial" font-size="10" text-anchor="middle" fill="#000000">
    • Balance Monitoring
  </text>
  <text x="700" y="915" font-family="Arial" font-size="10" text-anchor="middle" fill="#000000">
    • Safe Human Interaction
  </text>

  <!-- Integration Points -->
  <rect x="950" y="820" width="400" height="100" fill="#f0fff0" stroke="#66cc66" stroke-width="1" rx="5" ry="5"/>
  <text x="1150" y="845" font-family="Arial" font-size="14" text-anchor="middle" fill="#000000" font-weight="bold">
    Critical Integration Points
  </text>
  <text x="1150" y="870" font-family="Arial" font-size="10" text-anchor="middle" fill="#000000">
    • Perception-Action Bridge
  </text>
  <text x="1150" y="885" font-family="Arial" font-size="10" text-anchor="middle" fill="#000000">
    • Voice Command Validation
  </text>
  <text x="1150" y="900" font-family="Arial" font-size="10" text-anchor="middle" fill="#000000">
    • Multi-Modal Fusion
  </text>
  <text x="1150" y="915" font-family="Arial" font-size="10" text-anchor="middle" fill="#000000">
    • Real-time Synchronization
  </text>

  <!-- Legend -->
  <rect x="50" y="950" width="600" height="40" fill="#f9f9f9" stroke="#cccccc" stroke-width="1"/>
  <text x="350" y="975" font-family="Arial" font-size="12" text-anchor="middle" fill="#000000">
    Isaac Sim: Blue | Isaac ROS: Red | Nav2: Green | Voice: Orange | LLM: Purple | Hardware: Pink | ROS2: Light Green
  </text>

  <!-- Labels -->
  <text x="700" y="995" font-family="Arial" font-size="12" text-anchor="middle" fill="#000000">
    Complete autonomous humanoid robot system integrating simulation, perception, navigation, voice processing, and AI planning
  </text>

</svg>